<?xml version="1.0" standalone="no"?><!DOCTYPE svg PUBLIC "-//W3C//DTD SVG 1.1//EN" "http://www.w3.org/Graphics/SVG/1.1/DTD/svg11.dtd"><svg t="1634638130535" class="icon" viewBox="0 0 1024 1024" version="1.1" xmlns="http://www.w3.org/2000/svg" p-id="794" xmlns:xlink="http://www.w3.org/1999/xlink" width="200" height="200"><defs><style type="text/css"></style></defs><path d="M832 492.373333a42.666667 42.666667 0 0 0-42.666667 42.666667v300.16H234.666667V234.666667h277.333333a42.666667 42.666667 0 0 0 0-85.333334H192a42.666667 42.666667 0 0 0-42.666667 42.666667v685.866667a42.666667 42.666667 0 0 0 42.666667 42.666666h640a42.666667 42.666667 0 0 0 42.666667-42.666666V535.04a42.666667 42.666667 0 0 0-42.666667-42.666667z" p-id="795"></path><path d="M493.866667 595.2a42.666667 42.666667 0 0 0 59.733333-9.386667L859.306667 168.746667a42.666667 42.666667 0 0 0-68.906667-50.56L484.693333 535.466667a42.666667 42.666667 0 0 0 9.173334 59.733333z" p-id="796"></path></svg>